<svg width="326" height="791" viewBox="0 0 326 791" fill="none" xmlns="http://www.w3.org/2000/svg">
<path d="M143.091 0.938965C66.4903 15.4047 74.2922 9.5191 64.788 18.5956C55.2838 27.6721 55.3547 51.2853 55.3547 51.2853L50.8154 140.916C50.8154 140.916 51.17 148.574 48.4748 151.127C45.7796 153.68 23.7923 171.975 17.4089 182.753C11.0255 193.531 4.50025 202.75 4.6421 227.001L3.64911 294.508L4.35838 300.89L2.37245 398.179L0.244629 401.44V433.35L3.36539 438.881L8.47213 536.737L6.4862 540.85L8.04658 574.178C8.04658 574.178 12.5859 577.723 13.0114 582.12C13.437 586.516 23.6505 672.46 23.6505 672.46C23.6505 672.46 23.3667 675.438 23.0831 678.983C22.7994 682.529 34.4313 740.817 34.4313 740.817C34.4313 740.817 48.9004 772.443 68.7599 778.967C88.6194 785.491 157.768 790.463 166.563 790.037C175.358 789.612 227.494 787.618 240.686 779.818C253.879 772.018 271.791 760.843 276.122 744.267C280.498 727.523 287.035 681.804 287.035 681.804L288.775 666.503L298.563 583.68L302.535 574.603L305.23 539.999L303.669 536.595L307.216 441.717L310.478 435.194C310.478 435.194 312.039 412.502 311.471 410.942C310.904 409.382 323.671 397.753 325.089 395.484C326.508 393.215 324.947 302.733 324.947 302.733C324.947 302.733 311.613 285.998 310.478 286.991" stroke="black" stroke-width="0.264583"/>
<path d="M310.479 286.991C306.29 264.103 311.686 227.494 306.574 206.935C304.007 199.226 295.875 177.093 285.151 170.429C271.309 163.66 248.54 152.177 235.249 149.72" stroke="black" stroke-width="0.264583"/>
<path d="M235.249 149.72L234.108 147.404L190.009 141.696L187.562 144.461L177.313 144.142C177.313 144.142 173.732 143.681 172.029 141.519C170.327 139.356 164.653 137.229 163.093 116.239C161.532 95.2497 155.007 11.5755 155.007 11.5755C155.007 11.5755 154.44 -0.550137 143.091 0.938986" stroke="black" stroke-width="0.264583"/>
<path d="M145.663 2.04273C143.836 2.00991 140.766 2.46387 134.362 3.63112C118.392 6.54189 105.327 8.74477 90.4382 11.0364C71.6843 13.9228 71.1074 14.1065 66.5975 18.6495C64.4852 20.7773 62.2537 23.7209 61.3937 25.5118C59.8932 28.6366 57.9985 35.3949 57.2635 40.2448C57.0508 41.6488 55.67 66.4257 54.1946 95.3048C51.742 143.311 51.4158 147.986 50.4058 149.819C49.7982 150.922 45.4706 155.276 40.7895 159.495C26.0463 172.783 21.0723 178.444 15.3166 188.477C10.0797 197.606 7.71954 204.269 6.4946 213.404C5.76284 218.862 4.51277 289.389 5.02376 296.373C5.22922 299.181 4.95877 323.304 4.42487 349.981C3.5167 395.358 3.38737 398.582 2.40479 399.99C1.44446 401.367 1.35596 402.836 1.35596 417.168V432.841L2.87335 435.801L4.39074 438.76L6.96006 487.91C9.43462 535.28 9.49145 537.14 8.53951 539.251C7.6175 541.295 7.59999 542.5 8.29747 557.374L9.04531 573.308L10.6123 575.169C11.4736 576.193 12.5499 577.749 13.0048 578.629C14.2616 581.058 24.5743 669.645 24.4923 677.304C24.4254 683.542 25.2415 688.432 32.6316 726.088C35.3015 739.693 35.6247 740.841 38.0619 745.375C42.6831 753.974 48.4047 761.833 54.3839 767.793C60.7397 774.128 65.094 776.807 72.2916 778.822C82.1647 781.585 110.372 785.557 136.683 787.887C143.861 788.522 150.884 789.146 152.288 789.273C157.381 789.736 180.04 789.105 189.736 788.231C217.233 785.752 233.007 782.723 240.759 778.431C253.399 771.431 265.19 761.712 270.291 754.087C274.804 747.34 276.78 739.465 281.933 707.651C285.585 685.107 285.723 684.037 291.869 631.616L297.526 583.378L299.521 578.774C301.504 574.201 301.526 574.059 302.848 557.238C304.009 542.456 304.076 540.1 303.379 538.702C302.684 537.309 302.815 530.861 304.378 489.356L306.174 441.611L307.804 438.385C309.364 435.293 309.46 434.652 310.053 423.062C310.394 416.409 310.775 410.438 310.9 409.797C311.026 409.155 314.09 405.524 317.708 401.728L324.287 394.825L324.569 380.486C324.724 372.6 324.642 351.959 324.389 334.615L323.93 303.08L318.428 296.609C315.403 293.048 312.159 289.328 311.217 288.344L309.504 286.554L308.927 268.204C307.638 227.165 307.26 216.039 306.14 210.131C305.75 208.073 305.268 206.649 304.629 204.814C299.448 189.933 292.153 177.07 286.408 172.689C281.339 168.824 247.986 154.084 238.885 151.686C236.738 151.121 234.442 150.106 233.78 149.431C232.704 148.334 230.371 147.921 211.659 145.525L190.741 142.848L189.345 144.157C188.044 145.379 187.562 145.455 182.177 145.28C175.334 145.058 172.79 144.135 169.758 140.769C166.423 137.068 164.358 132.198 163.093 125.062C162.762 123.195 160.577 96.9024 158.237 66.6331C155.897 36.3638 153.823 10.8307 153.632 9.89471C152.817 5.90711 150.461 3.11951 147.153 2.22887C146.743 2.11849 146.272 2.05367 145.663 2.04273ZM63.3828 263.342H250.456V522.402H63.3828V263.342Z" fill="#3B3B3B" stroke="#3B3B3B" stroke-width="0.203929"/>
<path d="M143.091 0.938965C66.4903 15.4047 74.2922 9.5191 64.788 18.5956C55.2838 27.6721 55.3547 51.2853 55.3547 51.2853L50.8154 140.916C50.8154 140.916 51.17 148.574 48.4748 151.127C45.7796 153.68 23.7923 171.975 17.4089 182.753C11.0255 193.531 4.50025 202.75 4.6421 227.001L3.64911 294.508L4.35838 300.89L2.37245 398.178L0.244629 401.44V433.35L3.36539 438.881L8.47213 536.737L6.4862 540.85L8.04658 574.178C8.04658 574.178 12.5859 577.723 13.0114 582.12C13.437 586.516 23.6505 672.46 23.6505 672.46C23.6505 672.46 23.3667 675.438 23.0831 678.983C22.7994 682.529 34.4313 740.817 34.4313 740.817C34.4313 740.817 48.9004 772.443 68.7599 778.967C88.6194 785.491 157.768 790.463 166.563 790.037C175.358 789.612 227.494 787.618 240.686 779.818C253.879 772.017 271.791 760.842 276.122 744.267C280.498 727.523 287.035 681.804 287.035 681.804L288.775 666.503L298.563 583.68L302.535 574.603L305.23 539.999L303.669 536.595L307.216 441.717L310.478 435.194C310.478 435.194 312.039 412.502 311.471 410.942C310.904 409.382 323.671 397.753 325.089 395.484C326.508 393.215 324.947 302.733 324.947 302.733C324.947 302.733 311.613 285.998 310.478 286.991" stroke="black" stroke-width="0.264583"/>
<path d="M310.479 286.991C306.29 264.103 311.686 227.494 306.574 206.935C304.007 199.226 295.875 177.092 285.151 170.429C271.309 163.66 248.54 152.177 235.249 149.72" stroke="black" stroke-width="0.264583"/>
<path d="M235.249 149.72L234.108 147.404L190.009 141.696L187.562 144.461L177.313 144.142C177.313 144.142 173.732 143.681 172.029 141.519C170.327 139.356 164.653 137.229 163.093 116.239C161.532 95.2496 155.007 11.5755 155.007 11.5755C155.007 11.5755 154.44 -0.550198 143.091 0.938925" stroke="black" stroke-width="0.264583"/>
<path d="M145.663 2.04267C143.836 2.00985 140.766 2.46381 134.362 3.63106C118.392 6.54183 105.327 8.7447 90.4382 11.0363C71.6843 13.9227 71.1074 14.1064 66.5975 18.6494C64.4852 20.7773 62.2537 23.7208 61.3937 25.5118C59.8932 28.6365 57.9985 35.3949 57.2635 40.2447C57.0508 41.6487 55.67 66.4257 54.1946 95.3048C51.742 143.311 51.4158 147.986 50.4058 149.819C49.7982 150.922 45.4706 155.276 40.7895 159.495C26.0463 172.783 21.0723 178.444 15.3166 188.477C10.0797 197.606 7.71954 204.269 6.4946 213.404C5.76284 218.861 4.51277 289.389 5.02376 296.373C5.22922 299.181 4.95877 323.304 4.42487 349.981C3.5167 395.358 3.38737 398.582 2.40479 399.99C1.44446 401.367 1.35596 402.836 1.35596 417.168V432.841L2.87335 435.8L4.39074 438.76L6.96006 487.91C9.43462 535.28 9.49145 537.14 8.53951 539.251C7.6175 541.295 7.59999 542.5 8.29747 557.374L9.04531 573.308L10.6123 575.169C11.4736 576.193 12.5499 577.749 13.0048 578.628C14.2616 581.058 24.5743 669.645 24.4923 677.304C24.4254 683.542 25.2415 688.432 32.6316 726.088C35.3015 739.693 35.6247 740.84 38.0619 745.375C42.6831 753.974 48.4047 761.833 54.3839 767.793C60.7397 774.128 65.094 776.807 72.2916 778.821C82.1647 781.585 110.372 785.557 136.683 787.886C143.861 788.522 150.884 789.145 152.288 789.273C157.381 789.736 180.04 789.105 189.736 788.231C217.233 785.752 233.007 782.723 240.759 778.431C253.399 771.431 265.19 761.711 270.291 754.087C274.804 747.34 276.78 739.465 281.933 707.651C285.585 685.107 285.723 684.037 291.869 631.616L297.526 583.378L299.521 578.774C301.504 574.201 301.526 574.059 302.848 557.238C304.009 542.456 304.076 540.1 303.379 538.701C302.684 537.309 302.815 530.861 304.378 489.356L306.174 441.611L307.804 438.385C309.364 435.293 309.46 434.652 310.053 423.062C310.394 416.409 310.775 410.438 310.9 409.797C311.026 409.155 314.09 405.524 317.708 401.728L324.287 394.825L324.569 380.486C324.724 372.6 324.642 351.959 324.389 334.615L323.93 303.08L318.428 296.608C315.403 293.048 312.159 289.328 311.217 288.344L309.504 286.554L308.927 268.204C307.638 227.165 307.26 216.039 306.14 210.131C305.75 208.073 305.268 206.649 304.629 204.814C299.448 189.933 292.153 177.07 286.408 172.689C281.339 168.824 247.986 154.084 238.885 151.686C236.738 151.121 234.442 150.106 233.78 149.431C232.704 148.334 230.371 147.921 211.659 145.525L190.741 142.848L189.345 144.157C188.044 145.379 187.562 145.455 182.177 145.28C175.334 145.058 172.79 144.134 169.758 140.769C166.423 137.068 164.358 132.198 163.093 125.062C162.762 123.195 160.577 96.9024 158.237 66.6331C155.897 36.3638 153.823 10.8307 153.632 9.89465C152.817 5.90704 150.461 3.11945 147.153 2.22881C146.743 2.11843 146.272 2.05361 145.663 2.04267ZM63.3828 263.342H250.456V522.402H63.3828V263.342Z" fill="#3B3B3B" stroke="#3B3B3B" stroke-width="0.203929"/>
<path d="M131.232 5.56458L74.0576 16.7962C74.0576 16.7962 70.8478 16.5956 71.6503 24.2171C72.4527 31.8385 68.4405 144.355 64.0271 153.18C59.6136 162.005 26.914 181.259 49.5831 175.643C72.2521 170.028 78.2704 173.838 78.2704 173.838C49.4293 166.565 69.5156 169.801 70.246 155.386C70.4466 141.347 68.0393 23.4148 74.8601 22.0109C81.6809 20.6069 128.423 6.36683 129.226 8.97417C130.028 11.5815 147.883 163.409 143.469 165.214C139.056 167.019 123.809 176.044 123.809 176.044C123.809 176.044 207.063 164.011 264.638 192.691C264.638 192.691 266.444 170.83 268.851 166.217C271.258 161.604 265.603 166.053 265.603 166.053C265.603 166.053 262.03 168.423 262.432 169.827C262.833 171.231 258.62 157.994 174.163 149.771" stroke="#161616" stroke-width="0.264583"/>
<path d="M174.163 149.771C174.163 149.771 155.305 159.799 152.697 161.604C150.089 163.409 131.232 5.56458 131.232 5.56458" stroke="black" stroke-width="0.264583"/>
<path d="M262.293 190.56C259.946 189.357 253.467 186.682 249.242 185.172C224.755 176.42 194.211 172.157 160.017 172.718C148.671 172.904 134.81 173.698 129.235 174.48C128.284 174.613 128.837 174.216 132.639 172.037C135.136 170.606 138.774 168.616 140.725 167.614C143.759 166.057 144.32 165.662 144.61 164.881C145.097 163.569 145.066 154.487 144.548 146.514C143.178 125.447 139.827 91.1932 134.892 47.8175C131.528 18.2522 130.296 8.78419 129.74 8.22828C128.486 6.97412 119.727 8.77375 98.1688 14.7148C93.4096 16.0264 86.324 17.9604 82.423 19.0126C78.5221 20.0648 74.9375 21.0924 74.4573 21.2962C73.9726 21.5018 73.3885 22.0705 73.1444 22.5745C72.5319 23.8388 72.2398 23.1959 72.4765 21.1046C72.6991 19.1376 73.0909 18.1388 73.7375 17.8904C74.3244 17.665 130.303 6.66808 130.388 6.76139C130.424 6.79983 131.046 11.7454 131.772 17.7515C140.397 89.1194 148.062 146.106 150.694 158.438C151.571 162.546 152.15 163.08 154.277 161.744C155.533 160.955 162.13 157.304 169.237 153.464L174.344 150.705L182.725 151.604C203.954 153.884 222.231 156.855 236.334 160.319C247.008 162.941 257.616 167.003 260.659 169.634C262.058 170.843 262.678 170.796 263.541 169.414C264.269 168.247 268.829 163.785 268.526 164.536C266.709 169.028 265.74 173.896 264.56 184.456C264.163 188.008 263.809 190.998 263.775 191.101C263.74 191.203 263.074 190.96 262.293 190.56H262.293Z" fill="#161616" stroke="#161616" stroke-width="0.101964"/>
<path d="M42.9915 174.96C43.8338 173.632 44.8081 172.696 49.9382 168.285C60.6635 159.063 63.4239 156.361 64.7273 153.81C66.0384 151.244 67.3472 140.975 68.7827 121.99C69.1483 117.156 69.1667 117.979 69.1286 137.454L69.0884 158.025L68.1267 159.977C67.4473 161.357 66.3856 162.744 64.5095 164.705C61.8468 167.486 61.5334 168.087 62.1471 169.234C62.4501 169.8 64.0504 170.721 65.8103 171.342L66.8188 171.698L65.1165 171.898C60.7181 172.417 57.1408 173.006 53.6264 173.789C46.3781 175.404 44.6867 175.732 43.5931 175.736L42.4966 175.739L42.9915 174.96Z" fill="#161616" stroke="#161616" stroke-width="0.101964"/>
<path d="M69.3296 117.31C69.3296 115.984 69.3785 115.441 69.4381 116.104C69.4978 116.767 69.4978 117.852 69.4381 118.515C69.3784 119.178 69.3296 118.636 69.3296 117.31V117.31Z" fill="#161616" stroke="#161616" stroke-width="0.101964"/>
<path d="M69.0955 119.251C68.9919 119.199 68.986 119.199 68.9137 119.241L68.8389 119.286L68.8403 119.19C68.8411 119.138 68.8792 118.559 68.925 117.904L69.0082 116.713L69.0114 117.478C69.0162 118.469 69.0407 118.814 69.1141 118.939C69.1443 118.99 69.1849 119.032 69.2042 119.032C69.2301 119.032 69.2393 119.068 69.2393 119.17C69.2393 119.246 69.2313 119.307 69.2205 119.306C69.2094 119.305 69.1536 119.281 69.0947 119.251H69.0955Z" fill="#161616" stroke="#161616" stroke-width="0.00901245"/>
<path d="M69.2236 115.397C69.2236 115.28 69.2284 115.232 69.2332 115.29C69.2379 115.349 69.2379 115.445 69.2332 115.503C69.2284 115.561 69.2236 115.514 69.2236 115.397V115.397Z" fill="#161616" stroke="#161616" stroke-width="0.00901245"/>
<path d="M69.1919 115.332C69.1931 115.303 69.1997 115.297 69.2075 115.316C69.2153 115.334 69.2138 115.355 69.206 115.363C69.1982 115.371 69.1919 115.357 69.1934 115.331L69.1919 115.332Z" fill="#161616" stroke="#161616" stroke-width="0.00901245"/>
<path d="M69.0733 115.635C69.0813 115.566 69.1126 115.087 69.1445 114.57L69.2025 113.629L69.2089 114.419C69.2136 114.958 69.2073 115.225 69.1881 115.261C69.1687 115.297 69.1679 115.354 69.1849 115.449C69.2014 115.539 69.2014 115.588 69.1847 115.594C69.1704 115.599 69.1371 115.638 69.1094 115.682L69.0591 115.76L69.0733 115.635Z" fill="#161616" stroke="#161616" stroke-width="0.00901245"/>
<path d="M69.4165 152.522C69.4164 150.757 69.4213 149.11 69.4277 148.861C69.4356 148.587 69.4419 149.249 69.4446 150.545C69.451 153.342 69.4451 155.353 69.4287 155.562C69.4224 155.655 69.416 154.287 69.416 152.522H69.4165Z" fill="#161616" stroke="#161616" stroke-width="0.00637277"/>
<path d="M69.4346 147.868C69.4346 147.805 69.4377 147.779 69.4425 147.811C69.4456 147.842 69.4456 147.893 69.4425 147.925C69.4393 147.956 69.4346 147.931 69.4346 147.868V147.868Z" fill="#161616" stroke="#161616" stroke-width="0.00637277"/>
<path d="M69.416 148.366C69.416 147.951 69.4161 147.95 69.4287 147.958C69.4414 147.965 69.4414 147.972 69.4414 148.22C69.4414 148.36 69.443 148.543 69.4462 148.628L69.451 148.781H69.4344H69.4179L69.416 148.366Z" fill="#161616" stroke="#161616" stroke-width="0.00223047"/>
<path d="M69.4171 147.365C69.4176 147.132 69.4203 146.682 69.4219 146.365L69.425 145.788L69.4298 146.613C69.433 147.067 69.4362 147.513 69.4377 147.605C69.4409 147.771 69.4409 147.773 69.4282 147.781L69.4155 147.789L69.4171 147.365Z" fill="#161616" stroke="#161616" stroke-width="0.00223047"/>
<path d="M69.4189 145.657C69.4189 145.586 69.4199 145.557 69.4206 145.594C69.4217 145.631 69.4217 145.689 69.4206 145.724C69.4194 145.759 69.4189 145.729 69.4189 145.657Z" fill="#161616" stroke="#161616" stroke-width="0.00223047"/>
<path d="M66.8876 171.766C66.9019 171.609 66.9109 171.576 66.9376 171.577C66.9835 171.578 67.7626 171.839 67.7216 171.839C67.6553 171.84 67.1337 171.873 66.9959 171.884L66.8755 171.896L66.8876 171.766Z" fill="#161616" stroke="#161616" stroke-width="0.00630872"/>
<path d="M246.166 185.889C245.815 185.75 242.333 184.63 240.854 184.18C223.715 178.966 203.74 175.76 181.797 174.702C175.494 174.398 170.786 174.305 163.476 174.343C157.456 174.375 154.91 174.432 149.848 174.653C141.027 175.036 131.061 175.85 124.701 176.705C124.305 176.758 123.965 176.787 123.947 176.769C123.906 176.728 123.459 175.47 123.46 175.397C123.46 175.368 123.544 175.299 123.646 175.242C123.748 175.186 124.904 174.513 126.215 173.748C131.75 170.516 136.535 167.834 139.821 166.122C141.123 165.444 142.871 164.599 142.973 164.599C142.997 164.599 143.042 164.504 143.072 164.388C143.102 164.272 143.136 164.143 143.148 164.102C143.231 163.81 143.332 162.448 143.365 161.174C143.519 155.339 142.815 143.583 141.233 125.581C140.414 116.248 139.294 104.571 138.179 93.7168C138.057 92.5292 137.957 91.5294 137.957 91.4949C137.957 91.4453 138.308 91.4349 139.63 91.4453L141.303 91.458L141.715 94.61C145.518 123.672 148.742 146.211 150.399 155.316C151.216 159.803 151.684 161.461 152.267 161.933C152.412 162.05 152.491 162.076 152.696 162.075C153.049 162.072 153.376 161.924 154.503 161.258C156.757 159.926 162.962 156.511 172.235 151.5C173.352 150.896 174.32 150.402 174.385 150.402H174.504L174.346 150.105C174.193 149.819 174.188 149.791 174.222 149.423C174.241 149.212 174.264 149.032 174.273 149.022C174.283 149.013 175.102 149.087 176.095 149.186C203.012 151.873 224.479 155.337 240.105 159.516C242.166 160.067 244.862 160.847 246.03 161.23L246.489 161.38V173.686C246.489 180.455 246.472 185.991 246.452 185.99C246.432 185.989 246.303 185.943 246.167 185.889L246.166 185.889ZM127.808 174.723C127.723 174.697 127.631 174.698 127.585 174.726C127.528 174.759 127.569 174.771 127.729 174.769C127.936 174.766 127.942 174.763 127.808 174.723V174.723ZM128.387 174.69C128.326 174.679 128.225 174.679 128.164 174.69C128.102 174.701 128.153 174.711 128.275 174.711C128.398 174.711 128.449 174.702 128.387 174.69H128.387ZM128.15 174.454L128.524 174.233V174.454C128.524 174.576 128.541 174.675 128.563 174.675C128.585 174.675 128.594 174.597 128.583 174.501C128.57 174.39 128.594 174.279 128.649 174.194L128.736 174.062L128.518 174.189C128.398 174.258 128.172 174.387 128.015 174.475C127.758 174.619 127.684 174.675 127.753 174.675C127.765 174.675 127.944 174.576 128.15 174.454L128.15 174.454Z" fill="#161616" stroke="#161616" stroke-width="0.0178437"/>
<path d="M268.735 164.252C268.735 164.194 268.626 164.147 268.492 164.147C268.269 164.147 268.286 164.112 268.715 163.707C269.783 162.731 268.734 164.231 268.735 164.252H268.735Z" fill="#161616" stroke="#161616" stroke-width="0.0356875"/>
<path d="M306.004 292.743L316.255 300.886C316.255 300.886 319.485 302.922 319.696 309.029C319.907 315.136 319.415 388.703 319.415 388.703C319.415 388.703 319.626 394.038 314.991 396.565L305.091 403.725L306.004 292.743Z" stroke="black" stroke-width="0.264583"/>
<path d="M165.436 192.852C165.436 192.852 77.809 193.835 46.0723 210.822C14.3356 227.81 21.6379 280.318 21.6379 280.318C21.6379 280.318 21.6618 469.218 23.6279 486.908C23.6081 520.68 35.9257 634.327 43.685 679.181C52.247 728.675 53.6554 736.181 72.894 747.413C92.1326 758.645 152.376 757.802 162.487 757.662C172.598 757.521 232.701 751.485 240.284 747.132C247.867 742.78 264.157 729.302 271.74 662.053C279.323 594.803 286.766 514.357 287.889 491.472C289.013 468.588 291.119 329.737 291.119 329.737L289.855 255.889C289.855 255.889 289.996 221.633 264.157 209.559C238.318 197.485 165.436 192.852 165.436 192.852Z" stroke="black" stroke-width="0.264583"/>
<path d="M247.126 239.566C247.126 239.566 189.137 229.639 158.752 231.029C128.367 232.419 85.0728 231.823 72.3628 237.779C59.6527 243.736 48.3328 249.295 48.1342 266.37C47.9356 283.446 48.1342 516.939 48.1342 516.939C48.1342 516.939 47.7369 538.581 73.7529 540.368C99.7688 542.155 128.367 545.332 152.397 544.736C226.188 546.448 243.839 540.523 254.018 538.323C266.035 535.726 264.364 509.461 265.078 473.252C266.204 416.106 263.61 333.658 263.61 275.107C263.61 275.107 267.185 242.545 247.126 239.566Z" stroke="black" stroke-width="0.264583"/>
<path d="M135.153 756.542C113.339 755.779 96.7129 753.939 85.3015 751.024C78.3957 749.259 74.7706 747.684 69.3636 744.095C57.5326 736.244 53.9044 728.997 48.9573 703.339C42.7981 671.393 37.5397 633.706 31.9543 581.476C27.8345 542.951 25.5286 514.815 24.6355 492.174C23.4692 462.61 23.1967 443.658 22.8106 365.267C22.4996 302.136 22.3402 281.017 22.0848 269.096C21.8691 259.027 22.4274 252.76 24.2591 244.69C27.9916 228.245 35.9511 216.892 47.9477 210.901C65.2758 202.247 103.359 196.162 152.907 194.129C163.037 193.714 166.116 193.771 175.316 194.55C216.455 198.03 247.868 203.535 262.35 209.802C276.361 215.865 285.285 229.099 288.228 248.177C288.738 251.482 288.859 255.404 289.502 289.594C289.975 314.697 290.158 330.938 290.05 338.03C288.958 409.781 287.741 471.179 287.082 487.832C286.188 510.418 279.689 580.938 272.194 649.381C269.686 672.289 268.645 679.716 266.299 691.466C261.104 717.483 253.686 734.849 244.235 743.122C242.207 744.897 239.993 746.336 238.425 746.897C231.185 749.487 205.205 753.158 173.911 756.012C168.57 756.499 164.875 756.629 154.532 756.693C147.504 756.737 138.783 756.668 135.153 756.542V756.542ZM197.503 545.67C216.104 545.098 228.889 544.044 240.087 542.16C246.219 541.128 254.5 539.246 256.117 538.516C259.942 536.79 262.555 531.951 263.926 524.055C265.243 516.466 265.592 507.605 266.072 469.581C266.435 440.847 266.202 404.283 265.312 350.385C265.085 336.641 264.835 311.812 264.758 295.21C264.672 277.069 264.498 263.905 264.32 262.217C263.074 250.415 258.304 242.367 250.916 239.604C246.266 237.864 208.508 232.758 187.814 231.07C172.851 229.849 167.84 229.832 133.89 230.885C102.067 231.872 89.9404 232.681 80.8342 234.422C75.45 235.452 73.682 236.071 67.6076 239.05C54.4198 245.517 48.8757 251.917 47.5411 262.217C47.2948 264.118 47.235 296.442 47.2998 392.644C47.3813 513.667 47.4125 520.635 47.8794 522.229C49.312 527.121 51.1103 530.228 54.3792 533.461C57.3454 536.393 59.9652 538 64.0525 539.391C67.9513 540.717 70.5685 541.064 85.0206 542.164C92.1263 542.705 101.1 543.394 104.961 543.693C112.189 544.254 116.971 544.588 125.745 545.145C135.727 545.778 182.778 546.122 197.503 545.67V545.67Z" fill="#F23015" stroke="#FD4C24" stroke-width="0.100939"/>
<path d="M306.027 398.525C306.116 396.603 306.329 373.045 306.5 346.173C306.671 319.302 306.894 296.768 306.994 296.098L307.178 294.881L311.672 298.426C316.526 302.256 317.419 303.215 318.191 305.424C318.666 306.785 318.689 309.096 318.616 347.999C318.567 374.527 318.438 389.644 318.253 390.571C317.745 393.12 316.872 394.071 311.531 397.906C308.828 399.846 306.447 401.566 306.24 401.727C305.929 401.97 305.893 401.419 306.027 398.525V398.525Z" fill="#F23015" stroke="#FD4C24" stroke-width="0.100939"/>
<path d="M209.961 706.947C209.961 706.947 209.366 711.712 204.202 727.001C199.039 742.289 193.279 749.635 204.996 747.253C216.714 744.87 240.346 739.112 246.106 725.611C251.865 712.11 272.42 543.343 264.873 538.578C257.326 533.813 237.094 547.264 237.094 547.264" fill="#C22A16" fill-opacity="0.527132"/>
<path d="M103.981 739.099C103.708 739.052 102.859 738.916 102.095 738.796C97.9094 738.14 93.0985 736.658 89.7953 735.007C86.9024 733.561 85.085 732.239 82.6183 729.783C80.2156 727.391 78.2496 724.639 76.304 720.943C73.8205 716.226 70.2115 707.464 69.3147 703.975C65.963 690.934 61.1118 657.284 54.6436 602.211C52.5037 583.992 47.7788 541.503 47.7788 540.481C47.7788 540.342 48.382 540.782 49.1193 541.458C51.6415 543.772 56.2634 546.547 60.1764 548.098C64.4761 549.803 71.5791 550.783 87.5971 551.881C91.8291 552.171 101.593 552.576 109.74 552.799C116.934 552.995 120.862 552.996 129.004 552.8C134.629 552.665 139.423 552.515 139.656 552.467C140.157 552.363 140.163 552.4 140.619 558.233C142.159 577.94 142.155 594.38 140.61 602.31C140.144 604.699 139.367 606.898 138.659 607.831C138.072 608.603 137.845 608.723 135.551 609.477C134.189 609.924 132.494 610.556 131.784 610.882C128.841 612.232 124.553 615.102 120.762 618.259C118.428 620.203 110.588 628.073 108.959 630.107C103.132 637.382 98.9847 647.769 97.7403 658.202C96.6477 667.363 97.5464 676.113 100.504 685.105C104.153 696.203 109.274 703.6 117.614 709.82C125.993 716.069 137.878 720.533 150.425 722.144C152.119 722.361 153.538 722.572 153.579 722.613C153.858 722.892 140.42 729.746 135.317 731.927C127.073 735.451 119.82 737.675 113.18 738.717C111.298 739.012 104.998 739.274 103.981 739.099H103.981Z" fill="#FF5844" stroke="#FF5844" stroke-width="0.071375"/>
<path d="M39.7495 388.849C40.0681 363.05 40.6951 324.538 41.028 310.311C41.0704 308.497 41.1674 304.327 41.2431 301.045C41.8146 276.307 42.4474 260.173 43.0738 254.364C43.7144 248.425 45.3924 244.071 48.0501 241.453C49.9004 239.63 52.0436 238.464 57.7398 236.179C59.5162 235.466 62.1071 234.362 63.4973 233.724C67.1644 232.043 70.0158 231.196 76.2233 229.945C92.8512 226.593 119.02 223.876 146.209 222.677C152.433 222.402 169.218 222.445 173.803 222.747C190.134 223.87 207.88 226.288 221.479 228.543C231.407 230.201 250.689 233.881 253.11 234.581C256.395 235.531 259.707 237.728 262.178 240.599L263.027 241.585L261.728 241.894C261.014 242.064 259.493 242.365 258.35 242.564L256.27 242.926L254.673 242.242C245.004 238.104 236.691 237.243 225.407 235.613C216.595 234.34 203.567 233.204 185.389 230.845C181.681 230.686 178.021 230.797 174.584 230.607C159.324 229.762 148.976 230.83 132.93 231.098C114.663 232.354 103.706 230.75 82.3476 234.712C75.1376 236.049 67.7866 239.476 66.479 240.01C59.9368 242.679 49.4054 251.301 48.3308 262.317C48.2881 263.579 47.0296 292.819 47.3447 327.188C47.6642 362.046 47.2176 391.136 47.1751 391.695L47.3298 424.673C45.8881 426.011 40.6481 444.165 40.54 444.23C40.3718 444.332 39.6666 395.558 39.7494 388.849L39.7495 388.849Z" fill="#6E0D00" stroke="#8F160A" stroke-width="0.0504697"/>
<path d="M134.922 552.703C135.031 552.663 142.583 551.421 151.704 549.943L168.286 547.255L203.145 545.167C237.576 543.104 240.558 542.885 245.043 542.079C253.859 540.496 258.035 538.191 260.367 533.621C262.091 530.243 263.527 525.027 264.405 518.955C265.254 513.086 265.365 510.565 265.248 499.803C265.188 494.284 265.218 472.792 265.314 452.044L265.49 414.32L268.821 401.017L272.152 387.714L272.274 399.726C272.341 406.333 272.464 432.065 272.547 456.908C272.756 519.609 272.596 525.192 270.417 531.364C267.395 539.927 261.43 545.455 253.186 547.335C247.453 548.641 211.771 550.418 155.179 552.215C151.575 552.329 146.127 552.509 143.074 552.615C137.511 552.808 134.551 552.84 134.922 552.703V552.703Z" fill="#F93A1D" stroke="#F98A4E" stroke-width="0.071375"/>
<path d="M140.781 552.008C141.927 551.813 148.719 550.71 155.874 549.556L168.882 547.46L180.996 546.749C235.224 543.568 241.669 541.618 247.045 540.538C254.348 539.071 257.646 538.461 259.895 534.874C262.077 531.393 263.769 525.477 264.926 517.286C265.326 514.452 265.339 513.299 265.513 464.552L265.691 414.717L268.723 402.538L271.754 390.359L271.884 392.71C272.14 397.338 272.316 509.631 272.077 515.909C271.672 526.54 271.177 529.436 268.96 534.124C265.378 541.697 258.868 546.47 250.802 547.434C240.197 548.703 209.1 550.179 156.37 551.918C148.178 552.188 140.85 552.398 140.085 552.386L138.695 552.363L140.781 552.008Z" fill="#F9985C" stroke="#F19861" stroke-width="0.071375"/>
<path d="M159.348 714.495C185.013 714.495 205.819 694.05 205.819 668.829C205.819 643.608 185.013 623.163 159.348 623.163C133.682 623.163 112.876 643.608 112.876 668.829C112.876 694.05 133.682 714.495 159.348 714.495Z" fill="#C22A16"/>
<path d="M94.52 721.159L108.141 708.945C108.141 708.945 110.529 704.592 105.193 698.696C99.8562 692.799 95.503 676.373 96.0647 675.952C96.6264 675.53 94.8008 672.723 80.3368 673.284C65.8727 673.846 69.5245 679.971 69.2763 676.695C69.2763 676.695 66.294 683.814 73.7366 697.152C81.1793 710.489 85.8134 726.213 94.52 721.159V721.159Z" stroke="black" stroke-width="0.264583"/>
<path d="M100.558 643.521C100.558 643.521 104.35 633.272 108.001 630.043C111.652 626.814 104.35 621.338 104.35 621.338L95.7839 612.212C95.7839 612.212 89.7455 604.491 85.5327 611.23C81.3198 617.969 73.8772 632.71 73.4559 634.395C73.0346 636.08 65.7323 651.383 68.26 654.752C70.7877 658.122 71.6303 658.683 75.2814 658.964C78.9326 659.245 91.2902 659.525 91.2902 659.525" stroke="black" stroke-width="0.264583"/>
<path d="M91.29 659.525C91.29 659.525 94.9412 660.368 95.6433 659.105C96.3455 657.841 95.222 657.841 97.8902 650.681C100.558 643.521 100.558 643.521 100.558 643.521" stroke="black" stroke-width="0.264583"/>
<path d="M133.419 611.51C133.419 611.51 141.563 605.474 155.044 606.737C168.525 608.001 175.406 608.703 182.428 613.336C189.449 617.969 196.471 605.614 196.471 605.614L204.335 597.05C204.335 597.05 208.547 595.084 201.807 591.153C195.066 587.222 188.326 580.202 161.644 578.377C145.636 578.939 126.959 580.904 117.41 586.099C107.861 591.293 105.754 594.663 107.299 596.909C108.844 599.156 120.218 610.809 120.218 610.809C120.218 610.809 124.15 615.02 133.419 611.51V611.51Z" stroke="black" stroke-width="0.264583"/>
<path d="M214.855 614.228L205.024 624.255C205.024 624.255 200.655 627.332 205.322 632.792C209.989 638.252 212.075 642.422 212.075 642.422C212.075 642.422 214.259 646.691 214.656 651.357C215.053 656.023 215.153 659.596 221.607 659.696C228.061 659.795 239.779 659.894 239.779 659.894C239.779 659.894 245.339 661.582 242.36 649.669C239.381 637.756 233.92 625.248 231.239 621.177C228.558 617.107 224.685 605.095 218.926 610.555C213.167 616.015 214.855 614.228 214.855 614.228L214.855 614.228Z" stroke="black" stroke-width="0.264583"/>
<path d="M211.777 692.308C211.777 692.308 204.616 702.978 204.194 703.82C203.773 704.663 201.386 704.592 207.916 711.051C214.446 717.509 219.22 722.282 219.22 722.282C219.22 722.282 224.205 725.231 228.067 719.264C231.929 713.297 239.301 697.713 240.144 694.273C240.986 690.834 242.952 680.515 242.952 680.515C242.952 680.515 244.918 672.793 237.897 673.846C230.876 674.899 222.169 674.478 222.169 674.478C222.169 674.478 217.324 673.986 215.92 680.445C214.516 686.903 213.463 690.974 211.777 692.308V692.308Z" stroke="black" stroke-width="0.264583"/>
<path d="M91.318 658.893C91.3037 658.689 90.8024 658.657 85.2493 658.511C75.2535 658.247 73.2663 658.074 71.9125 657.347C70.9441 656.827 68.9757 654.575 68.7056 653.678C68.2421 652.138 68.9855 648.55 70.8202 643.471C71.1753 642.489 72.089 640.121 72.8507 638.21C73.6124 636.299 74.374 634.378 74.5433 633.941C75.8423 630.589 82.9227 617.075 85.9828 612.108C87.6745 609.362 89.2901 608.724 91.654 609.867C92.6567 610.352 93.8176 611.282 94.8898 612.461C97.4418 615.266 103.832 622.002 104.352 622.435C105.244 623.178 106.694 624.715 107.183 625.436C108.031 626.685 108.339 627.719 108.09 628.473C108.015 628.701 107.601 629.232 106.998 629.873C105.52 631.444 104.296 633.335 102.73 636.467C101.254 639.416 100.584 641.038 98.2357 647.343C95.9199 653.562 95.4166 655.207 95.1624 657.394C95.0131 658.678 94.9165 658.823 94.1533 658.907C93.6102 658.966 92.5209 658.899 91.7872 658.76C91.4837 658.703 91.4161 658.721 91.3767 658.874C91.3384 659.023 91.3273 659.027 91.3179 658.893L91.318 658.893Z" fill="#353535" stroke="#363636" stroke-width="0.0356875"/>
<path d="M231.564 658.994C222.752 658.911 220.112 658.82 219.169 658.566C217.38 658.085 216.452 657.112 215.992 655.235C215.819 654.528 215.711 653.71 215.479 651.331C215.281 649.311 214.946 647.736 214.289 645.745C213.348 642.89 212.651 641.49 210.686 638.508C209.617 636.884 207.789 634.416 206.693 633.115C204.57 630.594 203.922 629.28 204.033 627.723C204.128 626.389 204.276 626.193 208.089 622.317C214.242 616.063 216.354 614.006 219.535 611.17C221.364 609.538 222.659 609.621 224.48 611.487C225.562 612.596 226.512 614.116 228.465 617.858C229.177 619.224 230.2 621.077 230.739 621.978C233.832 627.148 237.756 636.742 240.304 645.364C241.957 650.958 242.576 654.323 242.339 656.421C242.126 658.294 241.514 659.13 240.383 659.09C240.12 659.081 236.152 659.038 231.564 658.994Z" fill="#353535" stroke="#363636" stroke-width="0.0356875"/>
<path d="M220.84 721.998C220.567 721.923 220.187 721.795 219.996 721.713C219.532 721.515 206.36 708.305 205.48 707.156C204.275 705.583 204.097 705.104 204.556 704.673C204.694 704.544 205.014 704.101 205.269 703.688C206.558 701.598 212.434 692.846 212.861 692.379C214.068 691.058 215.028 688.26 216.473 681.846C216.724 680.73 217.063 679.472 217.225 679.052C217.919 677.253 219.148 676.001 220.719 675.492C220.993 675.404 222.551 675.363 226.429 675.344C231.869 675.318 233.143 675.257 236.38 674.866C238.74 674.58 240.037 674.578 240.657 674.858C241.27 675.135 241.791 675.695 242.06 676.368C242.256 676.858 242.282 677.102 242.28 678.366C242.277 679.796 242.271 679.839 241.214 685.084C239.831 691.953 239.354 694.075 238.916 695.324C237.383 699.692 231.619 711.635 228.462 716.983C227.248 719.04 226.714 719.782 225.899 720.542C224.701 721.661 223.529 722.152 222.085 722.139C221.673 722.136 221.113 722.072 220.84 721.997V721.998Z" fill="#363636" stroke="black" stroke-width="0.0356875"/>
<path d="M90.0153 721.066C87.6307 720.295 85.4274 717.741 82.4269 712.269C82.0078 711.504 80.462 708.466 78.9919 705.518C77.5219 702.569 75.7987 699.197 75.1627 698.023C72.7757 693.617 71.5286 690.847 70.6707 688.046C69.836 685.32 69.4602 683.028 69.4614 680.669C69.4623 679.076 69.5561 678.281 69.8664 677.238L70.0692 676.556L69.8395 676.312C69.611 676.068 69.6108 676.066 69.8081 675.915C70.7083 675.226 73.0941 674.683 76.7359 674.338C78.9416 674.129 86.0968 674.035 88.1285 674.188C91.0574 674.409 93.3336 674.849 94.4836 675.417L95.129 675.735L95.2009 676.457C95.5065 679.52 98.0784 687.481 100.327 692.326C101.774 695.443 103.062 697.527 104.74 699.462C105.655 700.518 106.708 702.122 107.094 703.051C107.656 704.401 107.819 705.253 107.764 706.553C107.737 707.185 107.653 707.867 107.578 708.07C107.387 708.584 94.3066 720.351 93.5066 720.728C92.3457 721.275 91.0495 721.4 90.0152 721.066L90.0153 721.066Z" fill="#353535" stroke="#363636" stroke-width="0.0356875"/>
<path d="M155.887 708.98C179.716 708.98 199.034 689.856 199.034 666.265C199.034 642.674 179.716 623.549 155.887 623.549C132.058 623.549 112.741 642.674 112.741 666.265C112.741 689.856 132.058 708.98 155.887 708.98Z" fill="#363636" stroke="black" stroke-width="0.253"/>
<path d="M184.971 613.432C184.116 613.29 183.542 613.035 182.34 612.265C179.241 610.279 175.451 608.805 171.139 607.91C166.681 606.985 157.177 605.899 152.322 605.759C145.609 605.566 139.094 607.145 133.719 610.268C130.159 612.336 124.458 612.586 121.638 610.797C120.596 610.136 109.871 598.83 108.248 596.681C107.392 595.549 107.61 594.587 109.089 592.953C110.919 590.931 115.941 587.625 119.799 585.905C127.232 582.589 139.578 580.423 156.543 579.46C160.228 579.25 162.55 579.267 165.171 579.521C176.078 580.578 183.864 582.431 190.737 585.605C192.44 586.392 194.843 587.774 198.171 589.883C199.755 590.886 201.366 591.9 201.752 592.137C203.47 593.188 204.771 594.538 204.771 595.266C204.771 595.471 204.567 595.757 204.21 596.052C203.17 596.912 195.809 605.07 195.114 606.134C191.826 611.167 187.982 613.933 184.971 613.432V613.432Z" fill="#363636"/>
<path d="M84.0195 686.687L86.7969 691.304L89.6094 686.687H92.1523L88.0039 692.945L92.2812 699.367H89.7734L86.8438 694.609L83.9141 699.367H81.3945L85.6602 692.945L81.5234 686.687H84.0195Z" fill="#CCCCCC"/>
<path d="M218.742 697.987L223.508 704.937L232.048 689.847" stroke="#B3B3B3" stroke-width="2.5"/>
<path d="M91.8252 627.928L83.2856 637.855L87.2575 639.047L83.2856 646.79L94.0097 638.054L90.6336 637.061L91.8252 627.928Z" fill="#CCCCCC"/>
<path d="M216.742 636.068L230.842 635.87Z" fill="black"/>
<path d="M216.742 636.068L230.842 635.87" stroke="#CCCCCC" stroke-width="2.5"/>
<path d="M217.04 640.734L231.14 640.536Z" fill="black"/>
<path d="M217.04 640.734L231.14 640.536" stroke="#CCCCCC" stroke-width="2.5"/>
<path d="M217.635 645.5L231.736 645.301Z" fill="black"/>
<path d="M217.635 645.5L231.736 645.301" stroke="#CCCCCC" stroke-width="2.5"/>
<path d="M138.976 597.361L122.422 597.849Z" fill="#CCCCCC"/>
<path d="M138.976 597.361L122.422 597.849" stroke="#CCCCCC" stroke-width="2.5"/>
<path d="M189.554 597L173 597.488Z" fill="#CCCCCC"/>
<path d="M189.554 597L173 597.488" stroke="#CCCCCC" stroke-width="2.5"/>
<path d="M181.225 589.394L181.558 605.948Z" fill="#CCCCCC"/>
<path d="M181.225 589.394L181.558 605.948" stroke="#CCCCCC" stroke-width="2.5"/>
<path d="M155.748 629.243C135.218 629.241 118.574 645.942 118.573 666.545C118.578 684.387 131.171 699.727 148.62 703.147C145.953 673.951 169.921 645.804 192.897 665.9C192.546 645.559 176.02 629.252 155.748 629.243Z" fill="#1C2224"/>
<path d="M155.095 637.459L150.527 646.145L160.358 645.996L155.095 637.459Z" fill="#CCCCCC"/>
<path d="M155.69 700.308L160.323 691.656L150.491 691.731L155.69 700.308Z" fill="#CCCCCC"/>
<path d="M132.372 663.799L124.097 669.077L132.707 673.822L132.372 663.799Z" fill="#CCCCCC"/>
<path d="M186.712 668.96L178.224 664.03L177.958 673.856L186.712 668.96Z" fill="#CCCCCC"/>
</svg>
