<svg width="110" height="110" viewBox="0 0 110 110" fill="none" xmlns="http://www.w3.org/2000/svg">
<circle cx="55" cy="55" r="52.5" fill="#0A616F" stroke="white" stroke-width="5"/>
<path d="M5.04565 61.3592L3.86455 62.0474L4.07689 63.3979C7.95491 88.0606 29.2979 106.923 55.0501 106.923C78.143 106.923 97.6881 91.7549 104.276 70.8431L104.738 69.3779L103.441 68.5541L87.5672 58.4681L86.7319 53.5846L86.5105 52.2899L85.2343 51.9787L80.2358 50.7601L76.0403 38.1447L74.7529 30.0796L74.51 28.5585L72.9773 28.4049L66.4115 27.7468L65.9001 27.6955L65.4274 27.8972L59.7097 30.3358L59.1904 28.7741L57.482 29.0854L52.0652 30.0726L51.383 30.1969L50.9242 30.7167L47.5644 34.5234L42.1012 35.8554L41.5256 35.9957L41.1193 36.4269L32.9464 45.1005L5.04565 61.3592Z" fill="white" stroke="white" stroke-width="4"/>
<path d="M11.7344 63.1953C11.7344 62.6159 11.8451 62.0723 12.0664 61.5645C12.2878 61.0566 12.5872 60.6139 12.9648 60.2363C13.349 59.8522 13.7949 59.5495 14.3027 59.3281C14.8105 59.1068 15.3542 58.9961 15.9336 58.9961H22.3594V61.7988H15.9336C15.7383 61.7988 15.556 61.8346 15.3867 61.9062C15.2174 61.9779 15.0677 62.0788 14.9375 62.209C14.8138 62.3327 14.7161 62.4792 14.6445 62.6484C14.5729 62.8177 14.5371 63 14.5371 63.1953C14.5371 63.3906 14.5729 63.5762 14.6445 63.752C14.7161 63.9212 14.8138 64.071 14.9375 64.2012C15.0677 64.3249 15.2174 64.4225 15.3867 64.4941C15.556 64.5658 15.7383 64.6016 15.9336 64.6016H18.7363C19.3158 64.6016 19.8594 64.7122 20.3672 64.9336C20.8815 65.1484 21.3275 65.4479 21.7051 65.832C22.0892 66.2096 22.3887 66.6556 22.6035 67.1699C22.8249 67.6777 22.9355 68.2214 22.9355 68.8008C22.9355 69.3802 22.8249 69.9238 22.6035 70.4316C22.3887 70.9395 22.0892 71.3854 21.7051 71.7695C21.3275 72.1471 20.8815 72.4466 20.3672 72.668C19.8594 72.8893 19.3158 73 18.7363 73H12.5156V70.1973H18.7363C18.9316 70.1973 19.1139 70.1615 19.2832 70.0898C19.4525 70.0182 19.599 69.9206 19.7227 69.7969C19.8529 69.6667 19.9538 69.5169 20.0254 69.3477C20.097 69.1784 20.1328 68.9961 20.1328 68.8008C20.1328 68.6055 20.097 68.4232 20.0254 68.2539C19.9538 68.0846 19.8529 67.9382 19.7227 67.8145C19.599 67.6842 19.4525 67.5833 19.2832 67.5117C19.1139 67.4401 18.9316 67.4043 18.7363 67.4043H15.9336C15.3542 67.4043 14.8105 67.2936 14.3027 67.0723C13.7949 66.8509 13.349 66.5514 12.9648 66.1738C12.5872 65.7897 12.2878 65.3438 12.0664 64.8359C11.8451 64.3216 11.7344 63.7747 11.7344 63.1953ZM36.8262 67.4043C36.8262 68.179 36.6797 68.9082 36.3867 69.5918C36.0938 70.2689 35.6934 70.8613 35.1855 71.3691C34.6777 71.8704 34.082 72.2676 33.3984 72.5605C32.7214 72.8535 31.9954 73 31.2207 73C30.446 73 29.7168 72.8535 29.0332 72.5605C28.3561 72.2676 27.7637 71.8704 27.2559 71.3691C26.7546 70.8613 26.3574 70.2689 26.0645 69.5918C25.7715 68.9082 25.625 68.179 25.625 67.4043V58.9961H28.418V67.4043C28.418 67.7884 28.4896 68.1497 28.6328 68.4883C28.7826 68.8268 28.9844 69.123 29.2383 69.377C29.4922 69.6309 29.7884 69.8327 30.127 69.9824C30.472 70.1257 30.8366 70.1973 31.2207 70.1973C31.6048 70.1973 31.9661 70.1257 32.3047 69.9824C32.6497 69.8327 32.9492 69.6309 33.2031 69.377C33.457 69.123 33.6556 68.8268 33.7988 68.4883C33.9486 68.1497 34.0234 67.7884 34.0234 67.4043V58.9961H36.8262V67.4043ZM54.1543 73H51.3613V63C51.3613 62.8047 51.3223 62.6224 51.2441 62.4531C51.1725 62.2839 51.0716 62.1374 50.9414 62.0137C50.8177 61.8835 50.6712 61.7826 50.502 61.7109C50.3327 61.6393 50.1504 61.6035 49.9551 61.6035C49.7598 61.6035 49.5775 61.6393 49.4082 61.7109C49.2389 61.7826 49.0892 61.8835 48.959 62.0137C48.8353 62.1374 48.7376 62.2839 48.666 62.4531C48.5944 62.6224 48.5586 62.8047 48.5586 63V73H45.7559V63C45.7559 62.8047 45.7201 62.6224 45.6484 62.4531C45.5768 62.2839 45.4759 62.1374 45.3457 62.0137C45.222 61.8835 45.0755 61.7826 44.9062 61.7109C44.737 61.6393 44.5547 61.6035 44.3594 61.6035C44.1641 61.6035 43.9818 61.6393 43.8125 61.7109C43.6432 61.7826 43.4935 61.8835 43.3633 62.0137C43.2396 62.1374 43.1419 62.2839 43.0703 62.4531C42.9987 62.6224 42.9629 62.8047 42.9629 63V73H40.1602V63C40.1602 62.4206 40.2676 61.877 40.4824 61.3691C40.7038 60.8548 41.0033 60.4089 41.3809 60.0312C41.765 59.6471 42.2109 59.3477 42.7188 59.1328C43.2331 58.9115 43.7799 58.8008 44.3594 58.8008C44.8802 58.8008 45.3815 58.8952 45.8633 59.084C46.3451 59.2663 46.778 59.5332 47.1621 59.8848C47.5462 59.5332 47.9759 59.2663 48.4512 59.084C48.9329 58.8952 49.4342 58.8008 49.9551 58.8008C50.5345 58.8008 51.0781 58.9115 51.5859 59.1328C52.1003 59.3477 52.5462 59.6471 52.9238 60.0312C53.3079 60.4089 53.6074 60.8548 53.8223 61.3691C54.0436 61.877 54.1543 62.4206 54.1543 63V73ZM71.5605 73H68.7676V63C68.7676 62.8047 68.7285 62.6224 68.6504 62.4531C68.5788 62.2839 68.4779 62.1374 68.3477 62.0137C68.224 61.8835 68.0775 61.7826 67.9082 61.7109C67.7389 61.6393 67.5566 61.6035 67.3613 61.6035C67.166 61.6035 66.9837 61.6393 66.8145 61.7109C66.6452 61.7826 66.4954 61.8835 66.3652 62.0137C66.2415 62.1374 66.1439 62.2839 66.0723 62.4531C66.0007 62.6224 65.9648 62.8047 65.9648 63V73H63.1621V63C63.1621 62.8047 63.1263 62.6224 63.0547 62.4531C62.9831 62.2839 62.8822 62.1374 62.752 62.0137C62.6283 61.8835 62.4818 61.7826 62.3125 61.7109C62.1432 61.6393 61.9609 61.6035 61.7656 61.6035C61.5703 61.6035 61.388 61.6393 61.2188 61.7109C61.0495 61.7826 60.8997 61.8835 60.7695 62.0137C60.6458 62.1374 60.5482 62.2839 60.4766 62.4531C60.4049 62.6224 60.3691 62.8047 60.3691 63V73H57.5664V63C57.5664 62.4206 57.6738 61.877 57.8887 61.3691C58.11 60.8548 58.4095 60.4089 58.7871 60.0312C59.1712 59.6471 59.6172 59.3477 60.125 59.1328C60.6393 58.9115 61.1862 58.8008 61.7656 58.8008C62.2865 58.8008 62.7878 58.8952 63.2695 59.084C63.7513 59.2663 64.1842 59.5332 64.5684 59.8848C64.9525 59.5332 65.3822 59.2663 65.8574 59.084C66.3392 58.8952 66.8405 58.8008 67.3613 58.8008C67.9408 58.8008 68.4844 58.9115 68.9922 59.1328C69.5065 59.3477 69.9525 59.6471 70.3301 60.0312C70.7142 60.4089 71.0137 60.8548 71.2285 61.3691C71.4499 61.877 71.5605 62.4206 71.5605 63V73ZM77.873 73H75.0703V58.9961H77.873V73ZM87.3594 73H84.5664V61.7988H80.3574V58.9961H91.5586V61.7988H87.3594V73Z" fill="#0A616F"/>
<circle cx="54.5" cy="55.5" r="48" stroke="#0A616F" stroke-width="5"/>
</svg>
